<?xml version="1.0" encoding="utf-8"?>
<!-- Generator: Adobe Illustrator 18.0.0, SVG Export Plug-In . SVG Version: 6.00 Build 0)  -->
<!DOCTYPE svg PUBLIC "-//W3C//DTD SVG 1.1//EN" "http://www.w3.org/Graphics/SVG/1.1/DTD/svg11.dtd">
<svg version="1.1" id="Layer_1" xmlns="http://www.w3.org/2000/svg" xmlns:xlink="http://www.w3.org/1999/xlink" x="0px" y="0px"
	 viewBox="0 0 92.7 21.5" enable-background="new 0 0 92.7 21.5" xml:space="preserve">
<path fill="#333333" d="M8.8,5.9c1.9,0,3.2,0.9,4,1.8l-0.4,0.4c-0.9,0.9-2.2,1.2-3.4,1.1c-0.1,0-0.3,0-0.4,0c-2.4,0-4.3,2.8-4.3,6.1
	c0,1.8,0.8,2.9,2.5,2.9c0.1,0,0.3,0,0.4,0c1.4-0.2,2.8,0.3,3.6,1.5l0.1,0.1c-1.1,0.8-2.6,1.7-5,1.7c-3.3,0-5.8-2.3-5.8-6.1
	C0,10.3,3.9,5.9,8.8,5.9z"/>
<path fill="#333333" d="M82.4,0L82.4,0l-3.5,17.7c-0.1,0.3-0.1,0.4-0.1,0.6c0,0.5,0.2,0.6,0.5,0.6c0.2,0,0.3,0,0.5-0.1l0,0.8
	c0,1-0.8,1.9-1.8,1.9c0,0,0,0,0,0c-1.7,0-2.5-0.9-2.5-2.4c0-0.4,0.1-0.9,0.2-1.6l2.9-14.4C79,1.3,80.6,0,82.4,0z"/>
<path fill="#333333" d="M48.9,6.8h0.8L47,19.9c-0.2,0.9-1,1.6-2,1.6h-1.6l2.5-12.3C46.2,7.8,47.5,6.8,48.9,6.8z"/>
<path fill="#333333" d="M17.9,6.5 M24.9,6.4c-1.4,0-2.7,1-3,2.4l-1.5,7.6c-0.2,1-1.1,1.8-2.2,1.8c-0.9,0-1.5-0.5-1.7-0.8
	c-0.3-0.3-0.6-1-0.5-1.9l1.8-9.1l-0.8,0c-1.4,0-2.7,1-3,2.4L12.9,15c-0.7,3.4,1.9,6.6,5.4,6.6c0,0,0,0,0,0h0c2.6,0,4.8-1.8,5.3-4.4
	l2.1-10.7L24.9,6.4z"/>
<path fill="#333333" d="M35.7,7.9c-1-0.9-2.3-1.5-3.8-1.5c0,0,0,0,0,0h0c-2.6,0-4.8,1.8-5.3,4.4l-2.1,10.7l1.7,0c1,0,1.8-0.7,2-1.6
	l1.7-8.4c0.2-1,1.1-1.8,2.2-1.8c0.1,0,0.2,0,0.3,0c1.2,0.2,2.4-0.4,3.1-1.4L35.7,7.9z"/>
<path fill="#333333" d="M44.7,7.9c-1-0.9-2.3-1.5-3.8-1.5c0,0,0,0,0,0h0c-2.6,0-4.8,1.8-5.3,4.4l-2.1,10.7l1.7,0c1,0,1.8-0.7,2-1.6
	l1.7-8.4c0.2-1,1.1-1.8,2.2-1.8c0.1,0,0.2,0,0.3,0c1.2,0.2,2.4-0.4,3.1-1.4L44.7,7.9z"/>
<path fill="#333333" d="M67.9,6.5 M74.9,6.4c-1.4,0-2.7,1-3,2.4l-1.5,7.6c-0.2,1-1.1,1.8-2.2,1.8c-0.9,0-1.5-0.5-1.7-0.8
	c-0.3-0.3-0.6-1-0.5-1.9l1.8-9.1l-0.8,0c-1.4,0-2.7,1-3,2.4L62.9,15c-0.7,3.4,1.9,6.6,5.4,6.6c0,0,0,0,0,0h0c2.6,0,4.8-1.8,5.3-4.4
	l2.1-10.7L74.9,6.4z"/>
<path fill="#333333" d="M92.7,7.9c-1-0.9-2.3-1.5-3.8-1.5c0,0,0,0,0,0h0c-2.6,0-4.8,1.8-5.3,4.4l-2.1,10.7l1.7,0c1,0,1.8-0.7,2-1.6
	l1.7-8.4c0.2-1,1.1-1.8,2.2-1.8c0.1,0,0.2,0,0.3,0c1.2,0.2,2.4-0.4,3.1-1.4L92.7,7.9z"/>
<path fill="#FF0000" d="M51,0.5h-1.7c-1,0-1.8,0.7-2,1.6l-0.4,2h1.7c1,0,1.8-0.7,2-1.6L51,0.5z"/>
<g>
	<path fill="#333333" d="M58.7,6c1.8,0,3.1,0.8,3.9,1.8l-0.1,0.1c-0.8,0.9-2.1,1.1-3.2,0.8c-0.2-0.1-0.5-0.1-0.8-0.1
		c-2.6,0-4.9,3.1-4.9,6.7c0,2.2,1,3.5,3,3.5c0.4,0,0.7-0.1,1.1-0.2c1.2-0.4,2.4,0,3.1,1.1v0c-1.1,0.8-2.6,1.7-4.8,1.7
		c-3.2,0-5.6-2.2-5.6-6C50.2,10.2,54.1,6,58.7,6z"/>
</g>
</svg>
